<svg xmlns="http://www.w3.org/2000/svg" viewBox="0 0 135 150"><defs><style>.cls-1{fill:#fff;opacity:0;}.cls-2{fill:#ff4f21;}</style></defs><g id="Layer_2" data-name="Layer 2"><g id="graphics"><rect class="cls-1" width="135" height="150"/><path class="cls-2" d="M83.65,91.3C94.73,85.52,103,74.38,104.33,61.58c2-18.74-11.62-33.92-30.35-33.92S38.46,42.84,36.49,61.58l-.27,2.58-1,9.39c-4.15-.63-7.65-1.82-9.74-4.16L9.41,83.88c6.22,7,14.94,9.43,23.65,10.36l-2.59,24.57H50.68l2.5-23.71a38.36,38.36,0,0,1,6.37.78c1.48.35,3.5,3.4,5.45,6.35,5.29,8,13.28,20.11,34.81,20.11L102,101.8C91.45,101.8,87.8,97.48,83.65,91.3ZM70.07,75.91c-3.71.18-14.85-.42-14.85-.42L56.74,61A17,17,0,0,1,73.2,46.12,13.16,13.16,0,0,1,86.52,61C85.66,69.24,78.28,75.5,70.07,75.91Z"/></g></g></svg>