<svg viewBox="0 0 200 100" xmlns="http://www.w3.org/2000/svg" width="200" height="100">
	<defs>
		<style>.cls-1{fill:#fff;opacity:0;}.cls-2{fill:#ff4f21;}</style>
	</defs>
	<g data-name="Layer 2" id="Layer_2">
		<rect class="cls-1" height="100" width="200"/>
		<g id="graphics" transform="translate(-15 -15) scale(1.2)">
			<path class="cls-2" d="M102.34,62.14c-4.53,4.16-11,5.31-15.09,2.73,5.86-3.52,21.49-14.19,21.49-14.19a32,32,0,0,0-1-3.21c-.34-.81-3.23-8-10-10.78a15.42,15.42,0,0,0-12.45.51,19.74,19.74,0,0,0-7.06,5.46c-3.55,4.41-5.13,11.26-4.27,17.48a17.6,17.6,0,0,0,7.73,12.63c7.84,5.24,19.29,3.77,27.23-3.51ZM85.18,48.92c4.08-6.85,10.13-3.6,11.45-1.28-3.36,2.22-8.26,5.26-13.29,8.3A15.21,15.21,0,0,1,85.18,48.92Z"/>
			<path class="cls-2" d="M139.87,38.25v0a14.2,14.2,0,0,1,.22,3.32,27.32,27.32,0,0,1-.67,4.59C138,52.32,131.72,62.09,129,62.62a2.45,2.45,0,0,1,0-.27v-.07c1.24-9.58,2.21-17.16-2.62-22.1-1.56-1.61-5.28-4.19-12.44-3.43l-1.21.13-1.16,11,2-.38a14.51,14.51,0,0,1,3.55-.3,2.42,2.42,0,0,1,2.24,2.22c.26,2.92-.44,8.33-.87,11.58l0,.42c-1,7.28.45,11.75,4.3,13.28a9.4,9.4,0,0,0,3.52.7,10.24,10.24,0,0,0,3.68-.75c6.15-2.32,16.77-12.92,19.88-26a37,37,0,0,0,1-6.89,25.3,25.3,0,0,0-.11-3.48H139.87Z"/>
			<circle class="cls-2" cx="164.78" cy="27.23" r="7.08"/>
			<path class="cls-2" d="M165.08,66.15c-1-1.46,1.18-13,2.75-20.66l1.51-7.27H157.07l-1,4.87c-3.93,19.3-4.93,25.67.2,31.21a12.32,12.32,0,0,0,1.12,1l1.66,1.42L167.84,68A6.23,6.23,0,0,1,165.08,66.15Z"/>
			<path class="cls-2" d="M59.69,57A23,23,0,0,0,72,39.36c1.16-11.12-6.9-20.13-18-20.13s-21.07,9-22.24,20.13c0,.34-.06.68-.08,1,0,.17-.06.34-.08.51L31,46.46c-2.46-.37-4.54-1.08-5.78-2.47l-9.54,8.6c3.69,4.14,8.87,5.59,14,6.15L28.14,73.32h12l1.48-14.08a23.89,23.89,0,0,1,3.78.47c.88.21,2.08,2,3.23,3.77,3.14,4.75,7.89,11.93,20.66,11.93l1.29-12.19C64.32,63.22,62.15,60.66,59.69,57Zm-8-9H42.8l.93-8.88a10.11,10.11,0,0,1,9.82-8.88,7.85,7.85,0,0,1,8,8.88A10.11,10.11,0,0,1,51.68,48Z"/>
		</g>
	</g>
</svg>