<svg xmlns="http://www.w3.org/2000/svg" xmlns:xlink="http://www.w3.org/1999/xlink" viewBox="0 0 52.79 37.5" width="52.79" height="37.5"><defs><style>.cls-1{fill:url(#linear-gradient);}</style><linearGradient id="linear-gradient" x1="5207.26" y1="-1799.3" x2="5252.62" y2="-1799.3" gradientTransform="translate(-652.13 5503.29) rotate(-63.98)" gradientUnits="userSpaceOnUse"><stop offset="0" stop-color="#ff4f21"/><stop offset="1" stop-color="#f7931e"/></linearGradient></defs><title>Asset 105</title><g id="Layer_2" data-name="Layer 2"><g id="graphics"><path class="cls-1" d="M52.79,2.83q-2.86,3.44-5.59,7c-1.15-.88-1.56-.75-1.71-.7-1.71.55-5.24,5-7.81,15.8a26,26,0,0,1-1.43,4.46c-2,4.76-5.06,6.71-7.58,7.53C23.48,38.6,17,36.63,9.08,30A64.47,64.47,0,0,1,0,20.36q3.66-3.69,7.43-7.14c-1.26,1.15-2.5,2.32-3.74,3.51,1.24-1.19,2.48-2.36,3.74-3.52a60,60,0,0,0,7.82,8.86c5.72,5.22,9.6,6.39,11.11,6,1-.3,1.92-2.15,2.57-5C32.15,9.43,37.35,2.16,43.05.41,45.39-.31,49-.4,52.79,2.83Z"/></g></g></svg>