<svg xmlns="http://www.w3.org/2000/svg" viewBox="0 0 88 88"><defs><style>.cls-1{fill:#ff4f21;}.cls-2{fill:#fff;}</style></defs><g id="Layer_2" data-name="Layer 2"><g id="graphics"><circle class="cls-1" cx="44" cy="44" r="44"/><path class="cls-2" d="M44,75a31.13,31.13,0,0,1-22.59-9.78A30.75,30.75,0,0,1,13.07,42,31.27,31.27,0,0,1,42.63,13h.12l.48,0c9.94,0,16.15,2.7,18.43,8,5.26,12.21-13.67,32.73-15.84,35l-1.77,1.87L28.9,42.77l3.54-3.54L43.92,50.71C51.06,42.61,59.83,29.4,57.07,23c-1.77-4.12-8.51-5-13.84-5h-.38A26.21,26.21,0,0,0,18.06,42.32a26,26,0,1,0,51.93,2A25.39,25.39,0,0,0,66.62,32L71,29.47A30.33,30.33,0,0,1,75,44h0v.63A31,31,0,0,1,44,75Z"/></g></g></svg>