<svg xmlns="http://www.w3.org/2000/svg" width="27.527" height="36.336" viewBox="0 0 27.527 36.336"><defs><style>.a{fill:#fefefe;}</style></defs><g transform="translate(0.225 0.391)"><path class="a" d="M12.481,34.4C11.2,33.006,0,20.579,0,13.539A13.54,13.54,0,0,1,21.218,2.387L19.588,4.75A10.67,10.67,0,0,0,2.87,13.539c0,4.545,6.935,13.446,10.669,17.735,3.735-4.289,10.669-13.19,10.669-17.735a10.633,10.633,0,0,0-1.192-4.905l2.547-1.322a13.37,13.37,0,0,1,.982,2.456,13.559,13.559,0,0,1,.533,3.772c0,7.04-11.2,19.467-12.48,20.861l-1.058,1.154Zm-.624-15.489.793-2.76a3.088,3.088,0,1,0-2.123-2.132L7.765,14.8a5.964,5.964,0,1,1,4.092,4.108Z"/></g></svg>