<svg xmlns="http://www.w3.org/2000/svg" width="32.412" height="30.595" viewBox="0 0 32.412 30.595"><defs><style>.a{fill:#fefefe;}</style></defs><g transform="translate(0.294 0.302)"><path class="a" d="M15.945,29.99l-.766-.559C7.707,23.977.06,17.326,0,9.343A9.837,9.837,0,0,1,2.188,3.158,8.5,8.5,0,0,1,8.824,0h.052c2.341,0,4.707,1.214,7.047,3.614C17.68,1.791,20.118.022,22.981,0A7.789,7.789,0,0,1,28.7,2.224L26.938,4.1A5.084,5.084,0,0,0,23,2.588c-2.586.02-4.92,2.376-6.081,3.779l-.972,1.174-.989-1.159c-1.48-1.734-3.734-3.794-6.085-3.794H8.844A5.894,5.894,0,0,0,4.175,4.8a7.3,7.3,0,0,0-1.6,4.524c.049,6.6,7,12.742,13.353,17.45C20.73,23.132,29.309,16.288,29.255,9.09a6.836,6.836,0,0,0-.225-1.66l2.487-.654a9.444,9.444,0,0,1,.308,2.294c.059,7.825-7.233,14.4-15.121,20.349Z" transform="translate(0)"/></g></svg>