<svg xmlns="http://www.w3.org/2000/svg" width="33" height="32" viewBox="0 0 33 32">
  <g id="icon_check_orange" data-name="icon/check/orange" transform="translate(0 0)">
    <g id="icon_check_orange-2" data-name="icon/check/orange">
      <path id="Fill_1" data-name="Fill 1" d="M16,31.986A16.059,16.059,0,0,1,4.337,26.941a15.87,15.87,0,0,1-4.3-11.974A16.137,16.137,0,0,1,15.291.01l.061,0C15.434,0,15.515,0,15.6,0c5.134,0,8.335,1.391,9.516,4.133,2.713,6.3-7.057,16.892-8.18,18.079l-.911.964L8.2,15.357l1.825-1.825,5.925,5.925c3.686-4.181,8.214-11,6.789-14.3-.916-2.126-4.391-2.572-7.145-2.572-.041,0-.081,0-.121,0l-.076,0A13.528,13.528,0,0,0,2.608,15.128a13.415,13.415,0,1,0,26.8,1.027,13.086,13.086,0,0,0-1.741-6.37L29.9,8.5a15.657,15.657,0,0,1,2.085,7.495h0l0,.326A16.015,16.015,0,0,1,16,31.986" transform="translate(0.5 0)" fill="#ff4f21"/>
    </g>
  </g>
</svg>
