<svg id="insta" xmlns="http://www.w3.org/2000/svg" width="18.957" height="18.994" viewBox="0 0 18.957 18.994">
  <path id="Fill-1___TiRE5UPi" d="M9.478,18.994c-2.561,0-2.9-.011-3.908-.057a6.981,6.981,0,0,1-2.3-.442,4.623,4.623,0,0,1-1.678-1.1A4.641,4.641,0,0,1,.5,15.718a7.054,7.054,0,0,1-.441-2.3C.011,12.4,0,12.063,0,9.5s.011-2.9.057-3.915A7.056,7.056,0,0,1,.5,3.276,4.651,4.651,0,0,1,1.591,1.594,4.637,4.637,0,0,1,3.27.5,6.983,6.983,0,0,1,5.57.058C6.577.011,6.913,0,9.478,0s2.9.011,3.908.058a6.987,6.987,0,0,1,2.3.441,4.642,4.642,0,0,1,1.679,1.1,4.651,4.651,0,0,1,1.094,1.682,7.035,7.035,0,0,1,.44,2.306c.047,1.008.058,1.344.058,3.915s-.011,2.907-.058,3.916a7.033,7.033,0,0,1-.44,2.3A4.853,4.853,0,0,1,15.687,18.5a6.985,6.985,0,0,1-2.3.442C12.376,18.983,12.04,18.994,9.478,18.994Zm0-17.283c-2.527,0-2.827.01-3.829.056a5.255,5.255,0,0,0-1.76.327A2.945,2.945,0,0,0,2.8,2.8,2.941,2.941,0,0,0,2.09,3.9a5.239,5.239,0,0,0-.327,1.763c-.045.989-.055,1.287-.055,3.838s.01,2.85.055,3.838A5.242,5.242,0,0,0,2.09,15.1,2.946,2.946,0,0,0,2.8,16.19a2.94,2.94,0,0,0,1.09.71,5.218,5.218,0,0,0,1.76.328c1.006.045,1.307.055,3.829.055s2.825-.01,3.83-.055a5.215,5.215,0,0,0,1.759-.328,3.142,3.142,0,0,0,1.8-1.8,5.278,5.278,0,0,0,.327-1.764c.045-1.008.055-1.309.055-3.838s-.01-2.829-.055-3.838A5.275,5.275,0,0,0,16.867,3.9,2.933,2.933,0,0,0,16.158,2.8a2.93,2.93,0,0,0-1.09-.711,5.251,5.251,0,0,0-1.759-.327C12.305,1.721,12,1.711,9.478,1.711Z" transform="translate(0 0)" fill="#fefefe"/>
  <path id="Fill-4___TiRE5UPi" d="M4.867,9.753A4.877,4.877,0,1,1,9.734,4.877,4.877,4.877,0,0,1,4.867,9.753Zm0-8.042A3.166,3.166,0,1,0,8.026,4.877,3.166,3.166,0,0,0,4.867,1.711Z" transform="translate(4.611 4.62)" fill="#fefefe"/>
  <path id="Fill-6___TiRE5UPi" d="M2.275,1.14A1.137,1.137,0,1,1,1.137,0,1.138,1.138,0,0,1,2.275,1.14" transform="translate(13.4 3.288)" fill="#fefefe"/>
</svg>
