<svg id="linked_in" data-name="linked in" xmlns="http://www.w3.org/2000/svg" width="19" height="19" viewBox="0 0 19 19">
  <path id="Imported-Layers___qsNt9AwM" d="M17.594,19H1.4A1.388,1.388,0,0,1,0,17.629V1.37A1.387,1.387,0,0,1,1.4,0H17.594A1.39,1.39,0,0,1,19,1.37V17.629A1.39,1.39,0,0,1,17.594,19ZM11.908,9.376c1.465,0,1.465,1.389,1.465,2.4v4.41h2.818V11.218c0-2.243-.41-4.319-3.381-4.319a2.975,2.975,0,0,0-2.666,1.464h-.039V7.123H7.4V16.19h2.815V11.705C10.219,10.554,10.419,9.376,11.908,9.376ZM2.815,7.123V16.19H5.636V7.123ZM4.226,2.615A1.634,1.634,0,1,0,5.859,4.25,1.637,1.637,0,0,0,4.226,2.615Z" transform="translate(0)" fill="#fefefe"/>
</svg>
