<svg id="twitter" xmlns="http://www.w3.org/2000/svg" width="22.154" height="18.333" viewBox="0 0 22.154 18.333">
  <path id="Path" d="M10.757,4.877l.048.793-.8-.1a13.012,13.012,0,0,1-7.62-3.754L1.329.766l-.272.777a4.675,4.675,0,0,0,.992,4.79c.64.68.5.777-.608.372a1.885,1.885,0,0,0-.752-.178A5.8,5.8,0,0,0,1.265,8.7a5.172,5.172,0,0,0,2.193,2.071l.784.372-.928.016c-.9,0-.928.016-.832.356a4.841,4.841,0,0,0,2.993,2.654l.992.34-.864.518a9,9,0,0,1-4.29,1.2A4.734,4.734,0,0,0,0,16.351a12.17,12.17,0,0,0,3.089,1.424,13.5,13.5,0,0,0,10.5-1.2,14.067,14.067,0,0,0,5.33-6.279,16.712,16.712,0,0,0,1.089-4.855c0-.744.048-.842.944-1.732a10.563,10.563,0,0,0,1.121-1.246c.16-.307.144-.307-.672-.032-1.361.485-1.553.421-.88-.307A4.709,4.709,0,0,0,21.61.394c0-.049-.24.032-.512.178a8.923,8.923,0,0,1-1.409.55l-.864.275L18.04.864A6.512,6.512,0,0,0,16.68.152a5.461,5.461,0,0,0-2.8.065A4.633,4.633,0,0,0,10.757,4.877Z" transform="translate(0 0)" fill="#fefefe"/>
</svg>
